<mxfile host="app.diagrams.net" modified="2023-03-28T07:28:47.467Z" agent="Mozilla/5.0 (X11; Linux x86_64) AppleWebKit/537.36 (KHTML, like Gecko) Chrome/110.0.0.0 Safari/537.36" etag="1DSeie6spPNKayKnYHCt" version="21.1.1" type="device">
  <diagram name="Page-1" id="UsIuR6Ef_3U6f4BRFjXb">
    <mxGraphModel dx="1434" dy="802" grid="1" gridSize="10" guides="1" tooltips="1" connect="1" arrows="1" fold="1" page="1" pageScale="1" pageWidth="827" pageHeight="1169" math="0" shadow="0">
      <root>
        <mxCell id="0" />
        <mxCell id="1" parent="0" />
        <mxCell id="e7zOon-lThAs3FF_aXQf-1" value="Enregistrement du document" style="rounded=1;whiteSpace=wrap;html=1;" vertex="1" parent="1">
          <mxGeometry x="350" y="30" width="120" height="60" as="geometry" />
        </mxCell>
        <mxCell id="e7zOon-lThAs3FF_aXQf-2" value="" style="edgeStyle=orthogonalEdgeStyle;html=1;verticalAlign=bottom;endArrow=open;endSize=8;strokeColor=#ff0000;rounded=0;entryX=0.5;entryY=0;entryDx=0;entryDy=0;" edge="1" parent="1">
          <mxGeometry relative="1" as="geometry">
            <mxPoint x="409.5" y="165" as="targetPoint" />
            <mxPoint x="409.5" y="90" as="sourcePoint" />
            <Array as="points">
              <mxPoint x="409.5" y="140" />
              <mxPoint x="409.5" y="140" />
            </Array>
          </mxGeometry>
        </mxCell>
        <mxCell id="e7zOon-lThAs3FF_aXQf-3" value="Dispo à l&#39;emprunt" style="rounded=1;whiteSpace=wrap;html=1;" vertex="1" parent="1">
          <mxGeometry x="350" y="166" width="120" height="60" as="geometry" />
        </mxCell>
        <mxCell id="e7zOon-lThAs3FF_aXQf-4" value="Document en état / non volé / non perdu ?" style="rhombus;whiteSpace=wrap;html=1;fontColor=#000000;fillColor=#ffffc0;strokeColor=#ff0000;" vertex="1" parent="1">
          <mxGeometry x="370" y="460" width="80" height="40" as="geometry" />
        </mxCell>
        <mxCell id="e7zOon-lThAs3FF_aXQf-5" value="no" style="edgeStyle=orthogonalEdgeStyle;html=1;align=left;verticalAlign=bottom;endArrow=open;endSize=8;strokeColor=#ff0000;rounded=0;exitX=0.5;exitY=1;exitDx=0;exitDy=0;endFill=0;" edge="1" parent="1" source="e7zOon-lThAs3FF_aXQf-4">
          <mxGeometry x="-0.1176" y="-20" relative="1" as="geometry">
            <mxPoint x="410" y="558" as="targetPoint" />
            <mxPoint x="420" y="589" as="sourcePoint" />
            <Array as="points" />
            <mxPoint as="offset" />
          </mxGeometry>
        </mxCell>
        <mxCell id="e7zOon-lThAs3FF_aXQf-6" value="" style="edgeStyle=orthogonalEdgeStyle;html=1;verticalAlign=bottom;endArrow=open;endSize=8;strokeColor=#ff0000;rounded=0;entryX=0.5;entryY=0;entryDx=0;entryDy=0;" edge="1" parent="1">
          <mxGeometry relative="1" as="geometry">
            <mxPoint x="409.5" y="301" as="targetPoint" />
            <mxPoint x="409.5" y="226" as="sourcePoint" />
            <Array as="points">
              <mxPoint x="409.5" y="276" />
              <mxPoint x="409.5" y="276" />
            </Array>
          </mxGeometry>
        </mxCell>
        <mxCell id="e7zOon-lThAs3FF_aXQf-7" value="" style="edgeStyle=orthogonalEdgeStyle;html=1;verticalAlign=bottom;endArrow=open;endSize=8;strokeColor=#ff0000;rounded=0;exitX=1;exitY=0.5;exitDx=0;exitDy=0;entryX=1;entryY=0.5;entryDx=0;entryDy=0;" edge="1" parent="1" source="e7zOon-lThAs3FF_aXQf-4" target="e7zOon-lThAs3FF_aXQf-3">
          <mxGeometry relative="1" as="geometry">
            <mxPoint x="570" y="322" as="targetPoint" />
            <mxPoint x="540" y="342" as="sourcePoint" />
            <Array as="points">
              <mxPoint x="540" y="480" />
              <mxPoint x="540" y="196" />
            </Array>
          </mxGeometry>
        </mxCell>
        <mxCell id="e7zOon-lThAs3FF_aXQf-8" value="&lt;span style=&quot;color: rgb(0, 0, 0); font-family: Helvetica; font-size: 11px; font-style: normal; font-variant-ligatures: normal; font-variant-caps: normal; font-weight: 400; letter-spacing: normal; orphans: 2; text-align: left; text-indent: 0px; text-transform: none; widows: 2; word-spacing: 0px; -webkit-text-stroke-width: 0px; background-color: rgb(255, 255, 255); text-decoration-thickness: initial; text-decoration-style: initial; text-decoration-color: initial; float: none; display: inline !important;&quot;&gt;yes&lt;/span&gt;" style="text;whiteSpace=wrap;html=1;" vertex="1" parent="1">
          <mxGeometry x="454" y="457" width="50" height="40" as="geometry" />
        </mxCell>
        <mxCell id="e7zOon-lThAs3FF_aXQf-9" value="Suppression du document de la BDD" style="rounded=1;whiteSpace=wrap;html=1;" vertex="1" parent="1">
          <mxGeometry x="350" y="558" width="120" height="60" as="geometry" />
        </mxCell>
        <mxCell id="e7zOon-lThAs3FF_aXQf-10" value="Emprunt du document" style="rounded=1;whiteSpace=wrap;html=1;" vertex="1" parent="1">
          <mxGeometry x="350" y="302" width="120" height="60" as="geometry" />
        </mxCell>
        <mxCell id="e7zOon-lThAs3FF_aXQf-11" value="" style="edgeStyle=orthogonalEdgeStyle;html=1;verticalAlign=bottom;endArrow=open;endSize=8;strokeColor=#ff0000;rounded=0;entryX=0.5;entryY=0;entryDx=0;entryDy=0;" edge="1" parent="1" target="e7zOon-lThAs3FF_aXQf-4">
          <mxGeometry relative="1" as="geometry">
            <mxPoint x="409.5" y="437" as="targetPoint" />
            <mxPoint x="409.5" y="362" as="sourcePoint" />
            <Array as="points" />
          </mxGeometry>
        </mxCell>
      </root>
    </mxGraphModel>
  </diagram>
</mxfile>
